<svg width="163" height="35" viewBox="0 0 163 25" fill="none" xmlns="http://www.w3.org/2000/svg">
<g filter="url(#filter0_ddd_442_827)">
<rect x="10" y="16.1306" width="16" height="16" rx="2" transform="rotate(-25 10 16.1306)" fill="#197BBD"/>
</g>
<g filter="url(#filter1_ddd_442_827)">
<rect x="27" y="8.36865" width="16" height="16" rx="2" fill="#81C2EE"/>
</g>
<g filter="url(#filter2_ddd_442_827)">
<rect x="46.7617" y="9.36865" width="16" height="16" rx="2" transform="rotate(25 46.7617 9.36865)" fill="#E8F4FC"/>
</g>
<path d="M80.1647 14.92C79.9247 14.608 79.5827 14.35 79.1387 14.146C78.7067 13.93 78.2687 13.822 77.8247 13.822C77.5607 13.822 77.2967 13.858 77.0327 13.93C76.7687 13.99 76.5287 14.092 76.3127 14.236C76.0967 14.368 75.9167 14.548 75.7727 14.776C75.6407 14.992 75.5747 15.256 75.5747 15.568C75.5747 15.856 75.6347 16.102 75.7547 16.306C75.8747 16.51 76.0367 16.684 76.2407 16.828C76.4567 16.972 76.7147 17.098 77.0147 17.206C77.3147 17.314 77.6447 17.422 78.0047 17.53C78.4127 17.662 78.8327 17.812 79.2647 17.98C79.7087 18.148 80.1107 18.37 80.4707 18.646C80.8427 18.922 81.1427 19.27 81.3707 19.69C81.6107 20.11 81.7307 20.632 81.7307 21.256C81.7307 21.94 81.6047 22.54 81.3527 23.056C81.1007 23.56 80.7647 23.98 80.3447 24.316C79.9247 24.652 79.4327 24.904 78.8687 25.072C78.3047 25.24 77.7107 25.324 77.0867 25.324C76.2587 25.324 75.4487 25.174 74.6567 24.874C73.8647 24.562 73.2167 24.106 72.7127 23.506L74.3327 21.994C74.6447 22.426 75.0587 22.768 75.5747 23.02C76.1027 23.272 76.6187 23.398 77.1227 23.398C77.3867 23.398 77.6567 23.368 77.9327 23.308C78.2087 23.236 78.4547 23.122 78.6707 22.966C78.8987 22.81 79.0787 22.618 79.2107 22.39C79.3547 22.15 79.4267 21.856 79.4267 21.508C79.4267 21.172 79.3487 20.896 79.1927 20.68C79.0367 20.452 78.8267 20.26 78.5627 20.104C78.2987 19.936 77.9867 19.792 77.6267 19.672C77.2667 19.552 76.8887 19.426 76.4927 19.294C76.1087 19.174 75.7247 19.03 75.3407 18.862C74.9567 18.694 74.6087 18.472 74.2967 18.196C73.9967 17.92 73.7507 17.584 73.5587 17.188C73.3667 16.78 73.2707 16.276 73.2707 15.676C73.2707 15.028 73.4027 14.47 73.6667 14.002C73.9427 13.534 74.2967 13.15 74.7287 12.85C75.1727 12.538 75.6707 12.31 76.2227 12.166C76.7867 12.01 77.3567 11.932 77.9327 11.932C78.5807 11.932 79.2347 12.046 79.8947 12.274C80.5667 12.502 81.1487 12.844 81.6407 13.3L80.1647 14.92ZM91.7786 25H89.7266V23.614H89.6906C89.4986 24.046 89.1626 24.43 88.6826 24.766C88.2146 25.09 87.6566 25.252 87.0086 25.252C86.4446 25.252 85.9586 25.156 85.5506 24.964C85.1546 24.76 84.8246 24.496 84.5606 24.172C84.3086 23.848 84.1226 23.476 84.0026 23.056C83.8826 22.636 83.8226 22.204 83.8226 21.76V16.36H85.9826V21.148C85.9826 21.4 86.0006 21.664 86.0366 21.94C86.0726 22.216 86.1506 22.468 86.2706 22.696C86.3906 22.912 86.5526 23.092 86.7566 23.236C86.9726 23.38 87.2546 23.452 87.6026 23.452C87.9386 23.452 88.2326 23.386 88.4846 23.254C88.7486 23.11 88.9586 22.93 89.1146 22.714C89.2826 22.498 89.4086 22.252 89.4926 21.976C89.5766 21.688 89.6186 21.4 89.6186 21.112V16.36H91.7786V25ZM103.155 16.36V24.226C103.155 25.006 103.059 25.708 102.867 26.332C102.675 26.968 102.375 27.502 101.967 27.934C101.571 28.378 101.067 28.72 100.455 28.96C99.8432 29.2 99.1172 29.32 98.2772 29.32C97.9292 29.32 97.5572 29.29 97.1612 29.23C96.7772 29.17 96.3932 29.08 96.0092 28.96C95.6372 28.84 95.2772 28.69 94.9292 28.51C94.5812 28.33 94.2692 28.126 93.9932 27.898L95.2352 26.224C95.6552 26.62 96.1292 26.92 96.6572 27.124C97.1852 27.34 97.7192 27.448 98.2592 27.448C98.7752 27.448 99.2072 27.37 99.5552 27.214C99.9152 27.07 100.197 26.866 100.401 26.602C100.617 26.338 100.767 26.026 100.851 25.666C100.947 25.306 100.995 24.91 100.995 24.478V23.848H100.959C100.647 24.268 100.245 24.592 99.7532 24.82C99.2732 25.036 98.7332 25.144 98.1332 25.144C97.4852 25.144 96.8972 25.024 96.3692 24.784C95.8412 24.544 95.3912 24.22 95.0192 23.812C94.6592 23.404 94.3772 22.93 94.1732 22.39C93.9692 21.838 93.8672 21.256 93.8672 20.644C93.8672 20.02 93.9632 19.432 94.1552 18.88C94.3592 18.328 94.6412 17.848 95.0012 17.44C95.3732 17.032 95.8172 16.708 96.3332 16.468C96.8612 16.228 97.4492 16.108 98.0972 16.108C98.7092 16.108 99.2792 16.234 99.8072 16.486C100.335 16.738 100.755 17.128 101.067 17.656H101.103V16.36H103.155ZM98.5472 17.872C98.1512 17.872 97.7972 17.944 97.4852 18.088C97.1852 18.232 96.9272 18.43 96.7112 18.682C96.5072 18.922 96.3452 19.21 96.2252 19.546C96.1172 19.882 96.0632 20.242 96.0632 20.626C96.0632 20.974 96.1172 21.31 96.2252 21.634C96.3452 21.958 96.5072 22.252 96.7112 22.516C96.9272 22.768 97.1852 22.972 97.4852 23.128C97.7972 23.284 98.1452 23.362 98.5292 23.362C98.9252 23.362 99.2792 23.29 99.5912 23.146C99.9152 22.99 100.185 22.786 100.401 22.534C100.629 22.282 100.803 21.994 100.923 21.67C101.043 21.334 101.103 20.986 101.103 20.626C101.103 20.254 101.043 19.9 100.923 19.564C100.803 19.228 100.629 18.934 100.401 18.682C100.185 18.43 99.9212 18.232 99.6092 18.088C99.2972 17.944 98.9432 17.872 98.5472 17.872ZM114.528 16.36V24.226C114.528 25.006 114.432 25.708 114.24 26.332C114.048 26.968 113.748 27.502 113.34 27.934C112.944 28.378 112.44 28.72 111.828 28.96C111.216 29.2 110.49 29.32 109.65 29.32C109.302 29.32 108.93 29.29 108.534 29.23C108.15 29.17 107.766 29.08 107.382 28.96C107.01 28.84 106.65 28.69 106.302 28.51C105.954 28.33 105.642 28.126 105.366 27.898L106.608 26.224C107.028 26.62 107.502 26.92 108.03 27.124C108.558 27.34 109.092 27.448 109.632 27.448C110.148 27.448 110.58 27.37 110.928 27.214C111.288 27.07 111.57 26.866 111.774 26.602C111.99 26.338 112.14 26.026 112.224 25.666C112.32 25.306 112.368 24.91 112.368 24.478V23.848H112.332C112.02 24.268 111.618 24.592 111.126 24.82C110.646 25.036 110.106 25.144 109.506 25.144C108.858 25.144 108.27 25.024 107.742 24.784C107.214 24.544 106.764 24.22 106.392 23.812C106.032 23.404 105.75 22.93 105.546 22.39C105.342 21.838 105.24 21.256 105.24 20.644C105.24 20.02 105.336 19.432 105.528 18.88C105.732 18.328 106.014 17.848 106.374 17.44C106.746 17.032 107.19 16.708 107.706 16.468C108.234 16.228 108.822 16.108 109.47 16.108C110.082 16.108 110.652 16.234 111.18 16.486C111.708 16.738 112.128 17.128 112.44 17.656H112.476V16.36H114.528ZM109.92 17.872C109.524 17.872 109.17 17.944 108.858 18.088C108.558 18.232 108.3 18.43 108.084 18.682C107.88 18.922 107.718 19.21 107.598 19.546C107.49 19.882 107.436 20.242 107.436 20.626C107.436 20.974 107.49 21.31 107.598 21.634C107.718 21.958 107.88 22.252 108.084 22.516C108.3 22.768 108.558 22.972 108.858 23.128C109.17 23.284 109.518 23.362 109.902 23.362C110.298 23.362 110.652 23.29 110.964 23.146C111.288 22.99 111.558 22.786 111.774 22.534C112.002 22.282 112.176 21.994 112.296 21.67C112.416 21.334 112.476 20.986 112.476 20.626C112.476 20.254 112.416 19.9 112.296 19.564C112.176 19.228 112.002 18.934 111.774 18.682C111.558 18.43 111.294 18.232 110.982 18.088C110.67 17.944 110.316 17.872 109.92 17.872ZM123.201 19.816C123.201 19.54 123.159 19.276 123.075 19.024C123.003 18.772 122.883 18.55 122.715 18.358C122.547 18.166 122.331 18.016 122.067 17.908C121.815 17.788 121.515 17.728 121.167 17.728C120.519 17.728 119.967 17.926 119.511 18.322C119.067 18.706 118.821 19.204 118.773 19.816H123.201ZM125.361 20.788C125.361 20.884 125.361 20.98 125.361 21.076C125.361 21.172 125.355 21.268 125.343 21.364H118.773C118.797 21.676 118.875 21.964 119.007 22.228C119.151 22.48 119.337 22.702 119.565 22.894C119.793 23.074 120.051 23.218 120.339 23.326C120.627 23.434 120.927 23.488 121.239 23.488C121.779 23.488 122.235 23.392 122.607 23.2C122.979 22.996 123.285 22.72 123.525 22.372L124.965 23.524C124.113 24.676 122.877 25.252 121.257 25.252C120.585 25.252 119.967 25.15 119.403 24.946C118.839 24.73 118.347 24.43 117.927 24.046C117.519 23.662 117.195 23.194 116.955 22.642C116.727 22.078 116.613 21.442 116.613 20.734C116.613 20.038 116.727 19.408 116.955 18.844C117.195 18.268 117.519 17.782 117.927 17.386C118.335 16.978 118.815 16.666 119.367 16.45C119.931 16.222 120.537 16.108 121.185 16.108C121.785 16.108 122.337 16.21 122.841 16.414C123.357 16.606 123.801 16.9 124.173 17.296C124.545 17.68 124.833 18.166 125.037 18.754C125.253 19.33 125.361 20.008 125.361 20.788ZM132.187 18.664C131.995 18.412 131.731 18.196 131.395 18.016C131.059 17.824 130.693 17.728 130.297 17.728C129.949 17.728 129.631 17.8 129.343 17.944C129.055 18.088 128.911 18.328 128.911 18.664C128.911 19 129.067 19.24 129.379 19.384C129.703 19.516 130.171 19.654 130.783 19.798C131.107 19.87 131.431 19.966 131.755 20.086C132.091 20.206 132.391 20.368 132.655 20.572C132.931 20.764 133.153 21.01 133.321 21.31C133.489 21.598 133.573 21.952 133.573 22.372C133.573 22.9 133.471 23.35 133.267 23.722C133.075 24.082 132.811 24.376 132.475 24.604C132.151 24.832 131.767 24.994 131.323 25.09C130.891 25.198 130.441 25.252 129.973 25.252C129.301 25.252 128.647 25.132 128.011 24.892C127.375 24.64 126.847 24.286 126.427 23.83L127.849 22.498C128.089 22.81 128.401 23.068 128.785 23.272C129.169 23.476 129.595 23.578 130.063 23.578C130.219 23.578 130.375 23.56 130.531 23.524C130.699 23.488 130.849 23.434 130.981 23.362C131.125 23.278 131.239 23.17 131.323 23.038C131.407 22.906 131.449 22.744 131.449 22.552C131.449 22.192 131.281 21.934 130.945 21.778C130.621 21.622 130.129 21.466 129.469 21.31C129.145 21.238 128.827 21.148 128.515 21.04C128.215 20.92 127.945 20.77 127.705 20.59C127.465 20.398 127.273 20.164 127.129 19.888C126.985 19.612 126.913 19.27 126.913 18.862C126.913 18.382 127.009 17.968 127.201 17.62C127.405 17.272 127.669 16.99 127.993 16.774C128.317 16.546 128.683 16.378 129.091 16.27C129.499 16.162 129.919 16.108 130.351 16.108C130.975 16.108 131.581 16.216 132.169 16.432C132.769 16.648 133.243 16.978 133.591 17.422L132.187 18.664ZM134.209 18.088V16.36H135.721V13.858H137.845V16.36H140.005V18.088H137.845V22.102C137.845 22.486 137.911 22.804 138.043 23.056C138.187 23.308 138.499 23.434 138.979 23.434C139.123 23.434 139.279 23.422 139.447 23.398C139.615 23.362 139.765 23.314 139.897 23.254L139.969 24.946C139.777 25.018 139.549 25.072 139.285 25.108C139.021 25.156 138.769 25.18 138.529 25.18C137.953 25.18 137.485 25.102 137.125 24.946C136.765 24.778 136.477 24.556 136.261 24.28C136.057 23.992 135.913 23.668 135.829 23.308C135.757 22.936 135.721 22.54 135.721 22.12V18.088H134.209ZM147.652 19.816C147.652 19.54 147.61 19.276 147.526 19.024C147.454 18.772 147.334 18.55 147.166 18.358C146.998 18.166 146.782 18.016 146.518 17.908C146.266 17.788 145.966 17.728 145.618 17.728C144.97 17.728 144.418 17.926 143.962 18.322C143.518 18.706 143.272 19.204 143.224 19.816H147.652ZM149.812 20.788C149.812 20.884 149.812 20.98 149.812 21.076C149.812 21.172 149.806 21.268 149.794 21.364H143.224C143.248 21.676 143.326 21.964 143.458 22.228C143.602 22.48 143.788 22.702 144.016 22.894C144.244 23.074 144.502 23.218 144.79 23.326C145.078 23.434 145.378 23.488 145.69 23.488C146.23 23.488 146.686 23.392 147.058 23.2C147.43 22.996 147.736 22.72 147.976 22.372L149.416 23.524C148.564 24.676 147.328 25.252 145.708 25.252C145.036 25.252 144.418 25.15 143.854 24.946C143.29 24.73 142.798 24.43 142.378 24.046C141.97 23.662 141.646 23.194 141.406 22.642C141.178 22.078 141.064 21.442 141.064 20.734C141.064 20.038 141.178 19.408 141.406 18.844C141.646 18.268 141.97 17.782 142.378 17.386C142.786 16.978 143.266 16.666 143.818 16.45C144.382 16.222 144.988 16.108 145.636 16.108C146.236 16.108 146.788 16.21 147.292 16.414C147.808 16.606 148.252 16.9 148.624 17.296C148.996 17.68 149.284 18.166 149.488 18.754C149.704 19.33 149.812 20.008 149.812 20.788ZM160.688 25H158.636V23.704H158.6C158.3 24.208 157.88 24.592 157.34 24.856C156.812 25.12 156.242 25.252 155.63 25.252C154.97 25.252 154.376 25.132 153.848 24.892C153.332 24.64 152.888 24.31 152.516 23.902C152.156 23.482 151.874 22.996 151.67 22.444C151.478 21.88 151.382 21.28 151.382 20.644C151.382 20.008 151.484 19.414 151.688 18.862C151.892 18.31 152.18 17.83 152.552 17.422C152.924 17.014 153.368 16.696 153.884 16.468C154.4 16.228 154.964 16.108 155.576 16.108C155.972 16.108 156.326 16.156 156.638 16.252C156.95 16.336 157.22 16.444 157.448 16.576C157.688 16.708 157.892 16.852 158.06 17.008C158.228 17.164 158.366 17.314 158.474 17.458H158.528V11.392H160.688V25ZM153.578 20.644C153.578 20.98 153.626 21.316 153.722 21.652C153.83 21.988 153.986 22.288 154.19 22.552C154.394 22.816 154.652 23.032 154.964 23.2C155.276 23.368 155.642 23.452 156.062 23.452C156.458 23.452 156.812 23.374 157.124 23.218C157.436 23.05 157.7 22.834 157.916 22.57C158.144 22.306 158.312 22.012 158.42 21.688C158.54 21.352 158.6 21.016 158.6 20.68C158.6 20.344 158.54 20.008 158.42 19.672C158.312 19.336 158.144 19.036 157.916 18.772C157.7 18.508 157.436 18.292 157.124 18.124C156.812 17.956 156.458 17.872 156.062 17.872C155.642 17.872 155.276 17.956 154.964 18.124C154.652 18.28 154.394 18.49 154.19 18.754C153.986 19.018 153.83 19.318 153.722 19.654C153.626 19.978 153.578 20.308 153.578 20.644Z" fill="#197BBD"/>
<defs>
<filter id="filter0_ddd_442_827" x="-13.3428" y="2.02612" width="67.9482" height="67.948" filterUnits="userSpaceOnUse" color-interpolation-filters="sRGB">
<feFlood flood-opacity="0" result="BackgroundImageFix"/>
<feColorMatrix in="SourceAlpha" type="matrix" values="0 0 0 0 0 0 0 0 0 0 0 0 0 0 0 0 0 0 127 0" result="hardAlpha"/>
<feOffset/>
<feGaussianBlur stdDeviation="0.5"/>
<feColorMatrix type="matrix" values="0 0 0 0 0 0 0 0 0 0 0 0 0 0 0 0 0 0 0.04 0"/>
<feBlend mode="normal" in2="BackgroundImageFix" result="effect1_dropShadow_442_827"/>
<feColorMatrix in="SourceAlpha" type="matrix" values="0 0 0 0 0 0 0 0 0 0 0 0 0 0 0 0 0 0 127 0" result="hardAlpha"/>
<feOffset dy="2"/>
<feGaussianBlur stdDeviation="3"/>
<feColorMatrix type="matrix" values="0 0 0 0 0 0 0 0 0 0 0 0 0 0 0 0 0 0 0.04 0"/>
<feBlend mode="normal" in2="effect1_dropShadow_442_827" result="effect2_dropShadow_442_827"/>
<feColorMatrix in="SourceAlpha" type="matrix" values="0 0 0 0 0 0 0 0 0 0 0 0 0 0 0 0 0 0 127 0" result="hardAlpha"/>
<feOffset dy="16"/>
<feGaussianBlur stdDeviation="12"/>
<feColorMatrix type="matrix" values="0 0 0 0 0 0 0 0 0 0 0 0 0 0 0 0 0 0 0.06 0"/>
<feBlend mode="normal" in2="effect2_dropShadow_442_827" result="effect3_dropShadow_442_827"/>
<feBlend mode="normal" in="SourceGraphic" in2="effect3_dropShadow_442_827" result="shape"/>
</filter>
<filter id="filter1_ddd_442_827" x="3" y="0.368652" width="64" height="64" filterUnits="userSpaceOnUse" color-interpolation-filters="sRGB">
<feFlood flood-opacity="0" result="BackgroundImageFix"/>
<feColorMatrix in="SourceAlpha" type="matrix" values="0 0 0 0 0 0 0 0 0 0 0 0 0 0 0 0 0 0 127 0" result="hardAlpha"/>
<feOffset/>
<feGaussianBlur stdDeviation="0.5"/>
<feColorMatrix type="matrix" values="0 0 0 0 0 0 0 0 0 0 0 0 0 0 0 0 0 0 0.04 0"/>
<feBlend mode="normal" in2="BackgroundImageFix" result="effect1_dropShadow_442_827"/>
<feColorMatrix in="SourceAlpha" type="matrix" values="0 0 0 0 0 0 0 0 0 0 0 0 0 0 0 0 0 0 127 0" result="hardAlpha"/>
<feOffset dy="2"/>
<feGaussianBlur stdDeviation="3"/>
<feColorMatrix type="matrix" values="0 0 0 0 0 0 0 0 0 0 0 0 0 0 0 0 0 0 0.04 0"/>
<feBlend mode="normal" in2="effect1_dropShadow_442_827" result="effect2_dropShadow_442_827"/>
<feColorMatrix in="SourceAlpha" type="matrix" values="0 0 0 0 0 0 0 0 0 0 0 0 0 0 0 0 0 0 127 0" result="hardAlpha"/>
<feOffset dy="16"/>
<feGaussianBlur stdDeviation="12"/>
<feColorMatrix type="matrix" values="0 0 0 0 0 0 0 0 0 0 0 0 0 0 0 0 0 0 0.06 0"/>
<feBlend mode="normal" in2="effect2_dropShadow_442_827" result="effect3_dropShadow_442_827"/>
<feBlend mode="normal" in="SourceGraphic" in2="effect3_dropShadow_442_827" result="shape"/>
</filter>
<filter id="filter2_ddd_442_827" x="16.6572" y="2.02612" width="67.9482" height="67.948" filterUnits="userSpaceOnUse" color-interpolation-filters="sRGB">
<feFlood flood-opacity="0" result="BackgroundImageFix"/>
<feColorMatrix in="SourceAlpha" type="matrix" values="0 0 0 0 0 0 0 0 0 0 0 0 0 0 0 0 0 0 127 0" result="hardAlpha"/>
<feOffset/>
<feGaussianBlur stdDeviation="0.5"/>
<feColorMatrix type="matrix" values="0 0 0 0 0 0 0 0 0 0 0 0 0 0 0 0 0 0 0.04 0"/>
<feBlend mode="normal" in2="BackgroundImageFix" result="effect1_dropShadow_442_827"/>
<feColorMatrix in="SourceAlpha" type="matrix" values="0 0 0 0 0 0 0 0 0 0 0 0 0 0 0 0 0 0 127 0" result="hardAlpha"/>
<feOffset dy="2"/>
<feGaussianBlur stdDeviation="3"/>
<feColorMatrix type="matrix" values="0 0 0 0 0 0 0 0 0 0 0 0 0 0 0 0 0 0 0.04 0"/>
<feBlend mode="normal" in2="effect1_dropShadow_442_827" result="effect2_dropShadow_442_827"/>
<feColorMatrix in="SourceAlpha" type="matrix" values="0 0 0 0 0 0 0 0 0 0 0 0 0 0 0 0 0 0 127 0" result="hardAlpha"/>
<feOffset dy="16"/>
<feGaussianBlur stdDeviation="12"/>
<feColorMatrix type="matrix" values="0 0 0 0 0 0 0 0 0 0 0 0 0 0 0 0 0 0 0.06 0"/>
<feBlend mode="normal" in2="effect2_dropShadow_442_827" result="effect3_dropShadow_442_827"/>
<feBlend mode="normal" in="SourceGraphic" in2="effect3_dropShadow_442_827" result="shape"/>
</filter>
</defs>
</svg>
