<svg width="30" height="30" viewBox="0 0 30 30" fill="none" xmlns="http://www.w3.org/2000/svg">
<path d="M15.0005 17.3152C16.279 17.3152 17.3154 16.2787 17.3154 15.0002C17.3154 13.7217 16.279 12.6853 15.0005 12.6853C13.722 12.6853 12.6855 13.7217 12.6855 15.0002C12.6855 16.2787 13.722 17.3152 15.0005 17.3152Z" stroke="white" stroke-width="2" stroke-linecap="round" stroke-linejoin="round"/>
<path d="M20.7105 17.315C20.6077 17.5477 20.5771 17.8059 20.6225 18.0562C20.6679 18.3065 20.7872 18.5375 20.9651 18.7194L21.0114 18.7657C21.1549 18.909 21.2687 19.0792 21.3464 19.2666C21.424 19.4539 21.464 19.6547 21.464 19.8575C21.464 20.0604 21.424 20.2612 21.3464 20.4485C21.2687 20.6359 21.1549 20.8061 21.0114 20.9494C20.8681 21.0929 20.6979 21.2067 20.5105 21.2844C20.3232 21.3621 20.1223 21.402 19.9195 21.402C19.7167 21.402 19.5159 21.3621 19.3285 21.2844C19.1412 21.2067 18.971 21.0929 18.8276 20.9494L18.7813 20.9031C18.5995 20.7252 18.3685 20.6059 18.1182 20.5605C17.8679 20.5151 17.6097 20.5458 17.377 20.6485C17.1487 20.7463 16.9541 20.9087 16.817 21.1157C16.6799 21.3228 16.6063 21.5654 16.6053 21.8137V21.9448C16.6053 22.3541 16.4427 22.7467 16.1533 23.0361C15.8639 23.3255 15.4713 23.4881 15.062 23.4881C14.6527 23.4881 14.2602 23.3255 13.9708 23.0361C13.6813 22.7467 13.5187 22.3541 13.5187 21.9448V21.8754C13.5128 21.62 13.4301 21.3723 13.2815 21.1645C13.1328 20.9567 12.9251 20.7984 12.6854 20.7102C12.4526 20.6075 12.1944 20.5769 11.9441 20.6222C11.6938 20.6676 11.4628 20.787 11.281 20.9649L11.2347 21.0112C11.0913 21.1546 10.9211 21.2685 10.7338 21.3461C10.5464 21.4238 10.3456 21.4638 10.1428 21.4638C9.93998 21.4638 9.73916 21.4238 9.5518 21.3461C9.36445 21.2685 9.19425 21.1546 9.05092 21.0112C8.90743 20.8678 8.79359 20.6976 8.71593 20.5103C8.63826 20.3229 8.59829 20.1221 8.59829 19.9193C8.59829 19.7165 8.63826 19.5156 8.71593 19.3283C8.79359 19.1409 8.90743 18.9707 9.05092 18.8274L9.09721 18.7811C9.27511 18.5992 9.39444 18.3683 9.43983 18.1179C9.48521 17.8676 9.45457 17.6094 9.35186 17.3767C9.25404 17.1485 9.09162 16.9538 8.8846 16.8167C8.67757 16.6796 8.43498 16.6061 8.18667 16.6051H8.05549C7.64619 16.6051 7.25365 16.4425 6.96423 16.153C6.6748 15.8636 6.51221 15.4711 6.51221 15.0618C6.51221 14.6525 6.6748 14.2599 6.96423 13.9705C7.25365 13.6811 7.64619 13.5185 8.05549 13.5185H8.12494C8.38035 13.5125 8.62806 13.4298 8.83586 13.2812C9.04366 13.1326 9.20194 12.9249 9.29012 12.6851C9.39284 12.4524 9.42348 12.1942 9.3781 11.9439C9.33271 11.6936 9.21337 11.4626 9.03548 11.2807L8.98918 11.2344C8.84569 11.0911 8.73186 10.9209 8.6542 10.7335C8.57653 10.5462 8.53656 10.3454 8.53656 10.1425C8.53656 9.93974 8.57653 9.73891 8.6542 9.55156C8.73186 9.36421 8.84569 9.194 8.98918 9.05067C9.13251 8.90718 9.30272 8.79335 9.49007 8.71569C9.67743 8.63802 9.87825 8.59805 10.0811 8.59805C10.2839 8.59805 10.4847 8.63802 10.672 8.71569C10.8594 8.79335 11.0296 8.90718 11.1729 9.05067L11.2192 9.09697C11.4011 9.27486 11.6321 9.3942 11.8824 9.43958C12.1327 9.48497 12.3909 9.45433 12.6236 9.35161H12.6854C12.9136 9.2538 13.1082 9.09138 13.2453 8.88436C13.3824 8.67733 13.456 8.43473 13.457 8.18643V8.05525C13.457 7.64595 13.6196 7.2534 13.909 6.96398C14.1984 6.67456 14.591 6.51196 15.0003 6.51196C15.4096 6.51196 15.8021 6.67456 16.0916 6.96398C16.381 7.2534 16.5436 7.64595 16.5436 8.05525V8.1247C16.5446 8.373 16.6181 8.6156 16.7552 8.82262C16.8923 9.02965 17.087 9.19206 17.3152 9.28988C17.548 9.3926 17.8061 9.42324 18.0565 9.37785C18.3068 9.33246 18.5378 9.21313 18.7196 9.03524L18.7659 8.98894C18.9092 8.84545 19.0794 8.73162 19.2668 8.65395C19.4542 8.57629 19.655 8.53631 19.8578 8.53631C20.0606 8.53631 20.2614 8.57629 20.4488 8.65395C20.6361 8.73162 20.8063 8.84545 20.9497 8.98894C21.0932 9.13227 21.207 9.30248 21.2846 9.48983C21.3623 9.67718 21.4023 9.878 21.4023 10.0808C21.4023 10.2836 21.3623 10.4845 21.2846 10.6718C21.207 10.8592 21.0932 11.0294 20.9497 11.1727L20.9034 11.219C20.7255 11.4009 20.6061 11.6318 20.5608 11.8821C20.5154 12.1325 20.546 12.3906 20.6487 12.6234V12.6851C20.7465 12.9133 20.909 13.108 21.116 13.2451C21.323 13.3822 21.5656 13.4558 21.8139 13.4568H21.9451C22.3544 13.4568 22.7469 13.6194 23.0364 13.9088C23.3258 14.1982 23.4884 14.5907 23.4884 15C23.4884 15.4094 23.3258 15.8019 23.0364 16.0913C22.7469 16.3807 22.3544 16.5433 21.9451 16.5433H21.8756C21.6273 16.5443 21.3847 16.6179 21.1777 16.755C20.9707 16.8921 20.8083 17.0867 20.7105 17.315V17.315Z" stroke="white" stroke-width="2" stroke-linecap="round" stroke-linejoin="round"/>
</svg>
